<mxfile host="app.diagrams.net" agent="Mozilla/5.0 (Macintosh; Intel Mac OS X 10_15_7) AppleWebKit/537.36 (KHTML, like Gecko) Chrome/130.0.0.0 Safari/537.36" version="26.0.6">
  <diagram name="Страница — 1" id="75kRP6SrgAfxUkJfHCcB">
    <mxGraphModel dx="1810" dy="991" grid="1" gridSize="10" guides="1" tooltips="1" connect="1" arrows="1" fold="1" page="1" pageScale="1" pageWidth="827" pageHeight="1169" math="0" shadow="0">
      <root>
        <mxCell id="0" />
        <mxCell id="1" parent="0" />
        <mxCell id="kDPbcNTKIQIwCSPfaCvx-1" style="edgeStyle=orthogonalEdgeStyle;rounded=0;orthogonalLoop=1;jettySize=auto;html=1;exitX=1;exitY=0.5;exitDx=0;exitDy=0;entryX=0;entryY=0.5;entryDx=0;entryDy=0;" edge="1" parent="1" source="kDPbcNTKIQIwCSPfaCvx-26" target="kDPbcNTKIQIwCSPfaCvx-19">
          <mxGeometry relative="1" as="geometry">
            <mxPoint x="140" y="430" as="sourcePoint" />
            <mxPoint x="460" y="430" as="targetPoint" />
          </mxGeometry>
        </mxCell>
        <mxCell id="kDPbcNTKIQIwCSPfaCvx-2" style="edgeStyle=orthogonalEdgeStyle;rounded=0;orthogonalLoop=1;jettySize=auto;html=1;entryX=0.5;entryY=1;entryDx=0;entryDy=0;" edge="1" parent="1" source="kDPbcNTKIQIwCSPfaCvx-7" target="kDPbcNTKIQIwCSPfaCvx-26">
          <mxGeometry relative="1" as="geometry" />
        </mxCell>
        <mxCell id="kDPbcNTKIQIwCSPfaCvx-3" style="edgeStyle=orthogonalEdgeStyle;rounded=0;orthogonalLoop=1;jettySize=auto;html=1;entryX=0.5;entryY=1;entryDx=0;entryDy=0;" edge="1" parent="1" source="kDPbcNTKIQIwCSPfaCvx-7" target="kDPbcNTKIQIwCSPfaCvx-14">
          <mxGeometry relative="1" as="geometry" />
        </mxCell>
        <mxCell id="kDPbcNTKIQIwCSPfaCvx-4" style="edgeStyle=orthogonalEdgeStyle;rounded=0;orthogonalLoop=1;jettySize=auto;html=1;entryX=0.5;entryY=1;entryDx=0;entryDy=0;" edge="1" parent="1" source="kDPbcNTKIQIwCSPfaCvx-7" target="kDPbcNTKIQIwCSPfaCvx-16">
          <mxGeometry relative="1" as="geometry" />
        </mxCell>
        <mxCell id="kDPbcNTKIQIwCSPfaCvx-7" value="&lt;span style=&quot;text-wrap-mode: wrap;&quot;&gt;Аналитик&lt;/span&gt;" style="shape=umlActor;verticalLabelPosition=bottom;verticalAlign=top;html=1;outlineConnect=0;" vertex="1" parent="1">
          <mxGeometry x="855" y="555" width="30" height="60" as="geometry" />
        </mxCell>
        <mxCell id="kDPbcNTKIQIwCSPfaCvx-10" value="Хранилище с файлами" style="shape=cylinder3;whiteSpace=wrap;html=1;boundedLbl=1;backgroundOutline=1;size=15;" vertex="1" parent="1">
          <mxGeometry x="740" y="160" width="110" height="80" as="geometry" />
        </mxCell>
        <mxCell id="kDPbcNTKIQIwCSPfaCvx-12" value="Начало" style="rhombus;whiteSpace=wrap;html=1;" vertex="1" parent="1">
          <mxGeometry x="320" y="390" width="80" height="80" as="geometry" />
        </mxCell>
        <mxCell id="kDPbcNTKIQIwCSPfaCvx-13" style="edgeStyle=orthogonalEdgeStyle;rounded=0;orthogonalLoop=1;jettySize=auto;html=1;entryX=0;entryY=0.5;entryDx=0;entryDy=0;" edge="1" parent="1" source="kDPbcNTKIQIwCSPfaCvx-14" target="kDPbcNTKIQIwCSPfaCvx-16">
          <mxGeometry relative="1" as="geometry" />
        </mxCell>
        <mxCell id="kDPbcNTKIQIwCSPfaCvx-14" value="Анализ данных" style="shape=process;whiteSpace=wrap;html=1;backgroundOutline=1;" vertex="1" parent="1">
          <mxGeometry x="800" y="400" width="140" height="60" as="geometry" />
        </mxCell>
        <mxCell id="kDPbcNTKIQIwCSPfaCvx-16" value="Сохранение анализа" style="shape=process;whiteSpace=wrap;html=1;backgroundOutline=1;" vertex="1" parent="1">
          <mxGeometry x="980" y="400" width="120" height="60" as="geometry" />
        </mxCell>
        <mxCell id="kDPbcNTKIQIwCSPfaCvx-17" style="edgeStyle=orthogonalEdgeStyle;rounded=0;orthogonalLoop=1;jettySize=auto;html=1;entryX=0.5;entryY=1;entryDx=0;entryDy=0;entryPerimeter=0;exitX=0.5;exitY=0;exitDx=0;exitDy=0;" edge="1" parent="1" source="kDPbcNTKIQIwCSPfaCvx-16" target="kDPbcNTKIQIwCSPfaCvx-10">
          <mxGeometry relative="1" as="geometry" />
        </mxCell>
        <mxCell id="kDPbcNTKIQIwCSPfaCvx-18" value="" style="edgeStyle=orthogonalEdgeStyle;rounded=0;orthogonalLoop=1;jettySize=auto;html=1;" edge="1" parent="1" source="kDPbcNTKIQIwCSPfaCvx-19" target="kDPbcNTKIQIwCSPfaCvx-14">
          <mxGeometry relative="1" as="geometry" />
        </mxCell>
        <mxCell id="kDPbcNTKIQIwCSPfaCvx-19" value="Обезличенные файлы с данными о записях пациентов&lt;br&gt;Обезличенные файлы с данными пациентов" style="rounded=1;whiteSpace=wrap;html=1;" vertex="1" parent="1">
          <mxGeometry x="600" y="380" width="170" height="100" as="geometry" />
        </mxCell>
        <mxCell id="kDPbcNTKIQIwCSPfaCvx-27" value="" style="edgeStyle=orthogonalEdgeStyle;rounded=0;orthogonalLoop=1;jettySize=auto;html=1;exitX=1;exitY=0.5;exitDx=0;exitDy=0;entryX=0;entryY=0.5;entryDx=0;entryDy=0;" edge="1" parent="1" source="kDPbcNTKIQIwCSPfaCvx-12" target="kDPbcNTKIQIwCSPfaCvx-26">
          <mxGeometry relative="1" as="geometry">
            <mxPoint x="400" y="430" as="sourcePoint" />
            <mxPoint x="630" y="430" as="targetPoint" />
          </mxGeometry>
        </mxCell>
        <mxCell id="kDPbcNTKIQIwCSPfaCvx-26" value="Получение обфускационных данных" style="shape=process;whiteSpace=wrap;html=1;backgroundOutline=1;" vertex="1" parent="1">
          <mxGeometry x="440" y="400" width="130" height="60" as="geometry" />
        </mxCell>
        <mxCell id="kDPbcNTKIQIwCSPfaCvx-28" style="edgeStyle=orthogonalEdgeStyle;rounded=0;orthogonalLoop=1;jettySize=auto;html=1;entryX=0;entryY=0.5;entryDx=0;entryDy=0;entryPerimeter=0;exitX=0.5;exitY=0;exitDx=0;exitDy=0;" edge="1" parent="1" source="kDPbcNTKIQIwCSPfaCvx-26" target="kDPbcNTKIQIwCSPfaCvx-10">
          <mxGeometry relative="1" as="geometry" />
        </mxCell>
      </root>
    </mxGraphModel>
  </diagram>
</mxfile>
